<?xml version="1.0" encoding="UTF-8" standalone="no"?>
<!DOCTYPE svg PUBLIC "-//W3C//DTD SVG 1.1//EN"
 "http://www.w3.org/Graphics/SVG/1.1/DTD/svg11.dtd">
<!-- Generated by graphviz version 2.43.0 (0)
 -->
<!-- Title: ListDump Pages: 1 -->
<svg width="1832pt" height="396pt"
 viewBox="0.00 0.00 1832.00 396.00" xmlns="http://www.w3.org/2000/svg" xmlns:xlink="http://www.w3.org/1999/xlink">
<g id="graph0" class="graph" transform="scale(1 1) rotate(0) translate(4 392)">
<title>ListDump</title>
<polygon fill="white" stroke="transparent" points="-4,4 -4,-392 1828,-392 1828,4 -4,4"/>
<!-- node1 -->
<g id="node1" class="node">
<title>node1</title>
<path fill="lime" stroke="black" d="M472.5,-318.5C472.5,-318.5 886.5,-318.5 886.5,-318.5 892.5,-318.5 898.5,-324.5 898.5,-330.5 898.5,-330.5 898.5,-375.5 898.5,-375.5 898.5,-381.5 892.5,-387.5 886.5,-387.5 886.5,-387.5 472.5,-387.5 472.5,-387.5 466.5,-387.5 460.5,-381.5 460.5,-375.5 460.5,-375.5 460.5,-330.5 460.5,-330.5 460.5,-324.5 466.5,-318.5 472.5,-318.5"/>
<text text-anchor="middle" x="679.5" y="-372.3" font-family="Courier,monospace" font-size="14.00">VAL = 8.000000</text>
<polyline fill="none" stroke="black" points="460.5,-364.5 898.5,-364.5 "/>
<text text-anchor="middle" x="679.5" y="-349.3" font-family="Courier,monospace" font-size="14.00">ptr:0x5aade052e458</text>
<polyline fill="none" stroke="black" points="460.5,-341.5 898.5,-341.5 "/>
<text text-anchor="middle" x="568" y="-326.3" font-family="Courier,monospace" font-size="14.00">left_node=0x5aade052e480</text>
<polyline fill="none" stroke="black" points="675.5,-318.5 675.5,-341.5 "/>
<text text-anchor="middle" x="787" y="-326.3" font-family="Courier,monospace" font-size="14.00">right_node=0x5aade052e4a8</text>
</g>
<!-- node2 -->
<g id="node2" class="node">
<title>node2</title>
<path fill="lime" stroke="black" d="M300.5,-212.5C300.5,-212.5 640.5,-212.5 640.5,-212.5 646.5,-212.5 652.5,-218.5 652.5,-224.5 652.5,-224.5 652.5,-269.5 652.5,-269.5 652.5,-275.5 646.5,-281.5 640.5,-281.5 640.5,-281.5 300.5,-281.5 300.5,-281.5 294.5,-281.5 288.5,-275.5 288.5,-269.5 288.5,-269.5 288.5,-224.5 288.5,-224.5 288.5,-218.5 294.5,-212.5 300.5,-212.5"/>
<text text-anchor="middle" x="470.5" y="-266.3" font-family="Courier,monospace" font-size="14.00">VAL = 4.000000</text>
<polyline fill="none" stroke="black" points="288.5,-258.5 652.5,-258.5 "/>
<text text-anchor="middle" x="470.5" y="-243.3" font-family="Courier,monospace" font-size="14.00">ptr:0x5aade052e480</text>
<polyline fill="none" stroke="black" points="288.5,-235.5 652.5,-235.5 "/>
<text text-anchor="middle" x="396" y="-220.3" font-family="Courier,monospace" font-size="14.00">left_node=0x5aade052e4d0</text>
<polyline fill="none" stroke="black" points="503.5,-212.5 503.5,-235.5 "/>
<text text-anchor="middle" x="578" y="-220.3" font-family="Courier,monospace" font-size="14.00">right_node=(nil)</text>
</g>
<!-- node1&#45;&gt;node2 -->
<g id="edge1" class="edge">
<title>node1&#45;&gt;node2</title>
<path fill="none" stroke="green" d="M556.5,-318.29C556.5,-318.29 556.5,-291.79 556.5,-291.79"/>
<polygon fill="green" stroke="green" points="560,-291.79 556.5,-281.79 553,-291.79 560,-291.79"/>
</g>
<!-- node4 -->
<g id="node6" class="node">
<title>node4</title>
<path fill="lime" stroke="black" d="M705.5,-212.5C705.5,-212.5 1119.5,-212.5 1119.5,-212.5 1125.5,-212.5 1131.5,-218.5 1131.5,-224.5 1131.5,-224.5 1131.5,-269.5 1131.5,-269.5 1131.5,-275.5 1125.5,-281.5 1119.5,-281.5 1119.5,-281.5 705.5,-281.5 705.5,-281.5 699.5,-281.5 693.5,-275.5 693.5,-269.5 693.5,-269.5 693.5,-224.5 693.5,-224.5 693.5,-218.5 699.5,-212.5 705.5,-212.5"/>
<text text-anchor="middle" x="912.5" y="-266.3" font-family="Courier,monospace" font-size="14.00">VAL = 12.000000</text>
<polyline fill="none" stroke="black" points="693.5,-258.5 1131.5,-258.5 "/>
<text text-anchor="middle" x="912.5" y="-243.3" font-family="Courier,monospace" font-size="14.00">ptr:0x5aade052e4a8</text>
<polyline fill="none" stroke="black" points="693.5,-235.5 1131.5,-235.5 "/>
<text text-anchor="middle" x="801" y="-220.3" font-family="Courier,monospace" font-size="14.00">left_node=0x5aade052e520</text>
<polyline fill="none" stroke="black" points="908.5,-212.5 908.5,-235.5 "/>
<text text-anchor="middle" x="1020" y="-220.3" font-family="Courier,monospace" font-size="14.00">right_node=0x5aade052e548</text>
</g>
<!-- node1&#45;&gt;node4 -->
<g id="edge5" class="edge">
<title>node1&#45;&gt;node4</title>
<path fill="none" stroke="green" d="M796,-318.29C796,-318.29 796,-291.79 796,-291.79"/>
<polygon fill="green" stroke="green" points="799.5,-291.79 796,-281.79 792.5,-291.79 799.5,-291.79"/>
</g>
<!-- node6 -->
<g id="node3" class="node">
<title>node6</title>
<path fill="lime" stroke="black" d="M244.5,-106.5C244.5,-106.5 658.5,-106.5 658.5,-106.5 664.5,-106.5 670.5,-112.5 670.5,-118.5 670.5,-118.5 670.5,-163.5 670.5,-163.5 670.5,-169.5 664.5,-175.5 658.5,-175.5 658.5,-175.5 244.5,-175.5 244.5,-175.5 238.5,-175.5 232.5,-169.5 232.5,-163.5 232.5,-163.5 232.5,-118.5 232.5,-118.5 232.5,-112.5 238.5,-106.5 244.5,-106.5"/>
<text text-anchor="middle" x="451.5" y="-160.3" font-family="Courier,monospace" font-size="14.00">VAL = 2.000000</text>
<polyline fill="none" stroke="black" points="232.5,-152.5 670.5,-152.5 "/>
<text text-anchor="middle" x="451.5" y="-137.3" font-family="Courier,monospace" font-size="14.00">ptr:0x5aade052e4d0</text>
<polyline fill="none" stroke="black" points="232.5,-129.5 670.5,-129.5 "/>
<text text-anchor="middle" x="340" y="-114.3" font-family="Courier,monospace" font-size="14.00">left_node=0x5aade052e570</text>
<polyline fill="none" stroke="black" points="447.5,-106.5 447.5,-129.5 "/>
<text text-anchor="middle" x="559" y="-114.3" font-family="Courier,monospace" font-size="14.00">right_node=0x5aade052e598</text>
</g>
<!-- node2&#45;&gt;node6 -->
<g id="edge2" class="edge">
<title>node2&#45;&gt;node6</title>
<path fill="none" stroke="green" d="M470.5,-212.29C470.5,-212.29 470.5,-185.79 470.5,-185.79"/>
<polygon fill="green" stroke="green" points="474,-185.79 470.5,-175.79 467,-185.79 474,-185.79"/>
</g>
<!-- node14 -->
<g id="node4" class="node">
<title>node14</title>
<path fill="lime" stroke="black" d="M12,-0.5C12,-0.5 277,-0.5 277,-0.5 283,-0.5 289,-6.5 289,-12.5 289,-12.5 289,-57.5 289,-57.5 289,-63.5 283,-69.5 277,-69.5 277,-69.5 12,-69.5 12,-69.5 6,-69.5 0,-63.5 0,-57.5 0,-57.5 0,-12.5 0,-12.5 0,-6.5 6,-0.5 12,-0.5"/>
<text text-anchor="middle" x="144.5" y="-54.3" font-family="Courier,monospace" font-size="14.00">VAL = 1.000000</text>
<polyline fill="none" stroke="black" points="0,-46.5 289,-46.5 "/>
<text text-anchor="middle" x="144.5" y="-31.3" font-family="Courier,monospace" font-size="14.00">ptr:0x5aade052e570</text>
<polyline fill="none" stroke="black" points="0,-23.5 289,-23.5 "/>
<text text-anchor="middle" x="70" y="-8.3" font-family="Courier,monospace" font-size="14.00">left_node=(nil)</text>
<polyline fill="none" stroke="black" points="140,-0.5 140,-23.5 "/>
<text text-anchor="middle" x="214.5" y="-8.3" font-family="Courier,monospace" font-size="14.00">right_node=(nil)</text>
</g>
<!-- node6&#45;&gt;node14 -->
<g id="edge3" class="edge">
<title>node6&#45;&gt;node14</title>
<path fill="none" stroke="green" d="M260.75,-106.29C260.75,-106.29 260.75,-79.79 260.75,-79.79"/>
<polygon fill="green" stroke="green" points="264.25,-79.79 260.75,-69.79 257.25,-79.79 264.25,-79.79"/>
</g>
<!-- node16 -->
<g id="node5" class="node">
<title>node16</title>
<path fill="lime" stroke="black" d="M319,-0.5C319,-0.5 584,-0.5 584,-0.5 590,-0.5 596,-6.5 596,-12.5 596,-12.5 596,-57.5 596,-57.5 596,-63.5 590,-69.5 584,-69.5 584,-69.5 319,-69.5 319,-69.5 313,-69.5 307,-63.5 307,-57.5 307,-57.5 307,-12.5 307,-12.5 307,-6.5 313,-0.5 319,-0.5"/>
<text text-anchor="middle" x="451.5" y="-54.3" font-family="Courier,monospace" font-size="14.00">VAL = 3.000000</text>
<polyline fill="none" stroke="black" points="307,-46.5 596,-46.5 "/>
<text text-anchor="middle" x="451.5" y="-31.3" font-family="Courier,monospace" font-size="14.00">ptr:0x5aade052e598</text>
<polyline fill="none" stroke="black" points="307,-23.5 596,-23.5 "/>
<text text-anchor="middle" x="377" y="-8.3" font-family="Courier,monospace" font-size="14.00">left_node=(nil)</text>
<polyline fill="none" stroke="black" points="447,-0.5 447,-23.5 "/>
<text text-anchor="middle" x="521.5" y="-8.3" font-family="Courier,monospace" font-size="14.00">right_node=(nil)</text>
</g>
<!-- node6&#45;&gt;node16 -->
<g id="edge4" class="edge">
<title>node6&#45;&gt;node16</title>
<path fill="none" stroke="green" d="M451.5,-106.29C451.5,-106.29 451.5,-79.79 451.5,-79.79"/>
<polygon fill="green" stroke="green" points="455,-79.79 451.5,-69.79 448,-79.79 455,-79.79"/>
</g>
<!-- node10 -->
<g id="node7" class="node">
<title>node10</title>
<path fill="lime" stroke="black" d="M705.5,-106.5C705.5,-106.5 1119.5,-106.5 1119.5,-106.5 1125.5,-106.5 1131.5,-112.5 1131.5,-118.5 1131.5,-118.5 1131.5,-163.5 1131.5,-163.5 1131.5,-169.5 1125.5,-175.5 1119.5,-175.5 1119.5,-175.5 705.5,-175.5 705.5,-175.5 699.5,-175.5 693.5,-169.5 693.5,-163.5 693.5,-163.5 693.5,-118.5 693.5,-118.5 693.5,-112.5 699.5,-106.5 705.5,-106.5"/>
<text text-anchor="middle" x="912.5" y="-160.3" font-family="Courier,monospace" font-size="14.00">VAL = 10.000000</text>
<polyline fill="none" stroke="black" points="693.5,-152.5 1131.5,-152.5 "/>
<text text-anchor="middle" x="912.5" y="-137.3" font-family="Courier,monospace" font-size="14.00">ptr:0x5aade052e520</text>
<polyline fill="none" stroke="black" points="693.5,-129.5 1131.5,-129.5 "/>
<text text-anchor="middle" x="801" y="-114.3" font-family="Courier,monospace" font-size="14.00">left_node=0x5aade052e610</text>
<polyline fill="none" stroke="black" points="908.5,-106.5 908.5,-129.5 "/>
<text text-anchor="middle" x="1020" y="-114.3" font-family="Courier,monospace" font-size="14.00">right_node=0x5aade052e638</text>
</g>
<!-- node4&#45;&gt;node10 -->
<g id="edge6" class="edge">
<title>node4&#45;&gt;node10</title>
<path fill="none" stroke="green" d="M912.5,-212.29C912.5,-212.29 912.5,-185.79 912.5,-185.79"/>
<polygon fill="green" stroke="green" points="916,-185.79 912.5,-175.79 909,-185.79 916,-185.79"/>
</g>
<!-- node12 -->
<g id="node10" class="node">
<title>node12</title>
<path fill="lime" stroke="black" d="M1165.5,-106.5C1165.5,-106.5 1579.5,-106.5 1579.5,-106.5 1585.5,-106.5 1591.5,-112.5 1591.5,-118.5 1591.5,-118.5 1591.5,-163.5 1591.5,-163.5 1591.5,-169.5 1585.5,-175.5 1579.5,-175.5 1579.5,-175.5 1165.5,-175.5 1165.5,-175.5 1159.5,-175.5 1153.5,-169.5 1153.5,-163.5 1153.5,-163.5 1153.5,-118.5 1153.5,-118.5 1153.5,-112.5 1159.5,-106.5 1165.5,-106.5"/>
<text text-anchor="middle" x="1372.5" y="-160.3" font-family="Courier,monospace" font-size="14.00">VAL = 14.000000</text>
<polyline fill="none" stroke="black" points="1153.5,-152.5 1591.5,-152.5 "/>
<text text-anchor="middle" x="1372.5" y="-137.3" font-family="Courier,monospace" font-size="14.00">ptr:0x5aade052e548</text>
<polyline fill="none" stroke="black" points="1153.5,-129.5 1591.5,-129.5 "/>
<text text-anchor="middle" x="1261" y="-114.3" font-family="Courier,monospace" font-size="14.00">left_node=0x5aade052e660</text>
<polyline fill="none" stroke="black" points="1368.5,-106.5 1368.5,-129.5 "/>
<text text-anchor="middle" x="1480" y="-114.3" font-family="Courier,monospace" font-size="14.00">right_node=0x5aade052e688</text>
</g>
<!-- node4&#45;&gt;node12 -->
<g id="edge9" class="edge">
<title>node4&#45;&gt;node12</title>
<path fill="none" stroke="green" d="M1131.72,-247C1250.2,-247 1372.5,-247 1372.5,-247 1372.5,-247 1372.5,-185.71 1372.5,-185.71"/>
<polygon fill="green" stroke="green" points="1376,-185.71 1372.5,-175.71 1369,-185.71 1376,-185.71"/>
</g>
<!-- node22 -->
<g id="node8" class="node">
<title>node22</title>
<path fill="lime" stroke="black" d="M626,-0.5C626,-0.5 891,-0.5 891,-0.5 897,-0.5 903,-6.5 903,-12.5 903,-12.5 903,-57.5 903,-57.5 903,-63.5 897,-69.5 891,-69.5 891,-69.5 626,-69.5 626,-69.5 620,-69.5 614,-63.5 614,-57.5 614,-57.5 614,-12.5 614,-12.5 614,-6.5 620,-0.5 626,-0.5"/>
<text text-anchor="middle" x="758.5" y="-54.3" font-family="Courier,monospace" font-size="14.00">VAL = 9.000000</text>
<polyline fill="none" stroke="black" points="614,-46.5 903,-46.5 "/>
<text text-anchor="middle" x="758.5" y="-31.3" font-family="Courier,monospace" font-size="14.00">ptr:0x5aade052e610</text>
<polyline fill="none" stroke="black" points="614,-23.5 903,-23.5 "/>
<text text-anchor="middle" x="684" y="-8.3" font-family="Courier,monospace" font-size="14.00">left_node=(nil)</text>
<polyline fill="none" stroke="black" points="754,-0.5 754,-23.5 "/>
<text text-anchor="middle" x="828.5" y="-8.3" font-family="Courier,monospace" font-size="14.00">right_node=(nil)</text>
</g>
<!-- node10&#45;&gt;node22 -->
<g id="edge7" class="edge">
<title>node10&#45;&gt;node22</title>
<path fill="none" stroke="green" d="M798.25,-106.29C798.25,-106.29 798.25,-79.79 798.25,-79.79"/>
<polygon fill="green" stroke="green" points="801.75,-79.79 798.25,-69.79 794.75,-79.79 801.75,-79.79"/>
</g>
<!-- node24 -->
<g id="node9" class="node">
<title>node24</title>
<path fill="lime" stroke="black" d="M933,-0.5C933,-0.5 1198,-0.5 1198,-0.5 1204,-0.5 1210,-6.5 1210,-12.5 1210,-12.5 1210,-57.5 1210,-57.5 1210,-63.5 1204,-69.5 1198,-69.5 1198,-69.5 933,-69.5 933,-69.5 927,-69.5 921,-63.5 921,-57.5 921,-57.5 921,-12.5 921,-12.5 921,-6.5 927,-0.5 933,-0.5"/>
<text text-anchor="middle" x="1065.5" y="-54.3" font-family="Courier,monospace" font-size="14.00">VAL = 11.000000</text>
<polyline fill="none" stroke="black" points="921,-46.5 1210,-46.5 "/>
<text text-anchor="middle" x="1065.5" y="-31.3" font-family="Courier,monospace" font-size="14.00">ptr:0x5aade052e638</text>
<polyline fill="none" stroke="black" points="921,-23.5 1210,-23.5 "/>
<text text-anchor="middle" x="991" y="-8.3" font-family="Courier,monospace" font-size="14.00">left_node=(nil)</text>
<polyline fill="none" stroke="black" points="1061,-0.5 1061,-23.5 "/>
<text text-anchor="middle" x="1135.5" y="-8.3" font-family="Courier,monospace" font-size="14.00">right_node=(nil)</text>
</g>
<!-- node10&#45;&gt;node24 -->
<g id="edge8" class="edge">
<title>node10&#45;&gt;node24</title>
<path fill="none" stroke="green" d="M1026.25,-106.29C1026.25,-106.29 1026.25,-79.79 1026.25,-79.79"/>
<polygon fill="green" stroke="green" points="1029.75,-79.79 1026.25,-69.79 1022.75,-79.79 1029.75,-79.79"/>
</g>
<!-- node26 -->
<g id="node11" class="node">
<title>node26</title>
<path fill="lime" stroke="black" d="M1240,-0.5C1240,-0.5 1505,-0.5 1505,-0.5 1511,-0.5 1517,-6.5 1517,-12.5 1517,-12.5 1517,-57.5 1517,-57.5 1517,-63.5 1511,-69.5 1505,-69.5 1505,-69.5 1240,-69.5 1240,-69.5 1234,-69.5 1228,-63.5 1228,-57.5 1228,-57.5 1228,-12.5 1228,-12.5 1228,-6.5 1234,-0.5 1240,-0.5"/>
<text text-anchor="middle" x="1372.5" y="-54.3" font-family="Courier,monospace" font-size="14.00">VAL = 13.000000</text>
<polyline fill="none" stroke="black" points="1228,-46.5 1517,-46.5 "/>
<text text-anchor="middle" x="1372.5" y="-31.3" font-family="Courier,monospace" font-size="14.00">ptr:0x5aade052e660</text>
<polyline fill="none" stroke="black" points="1228,-23.5 1517,-23.5 "/>
<text text-anchor="middle" x="1298" y="-8.3" font-family="Courier,monospace" font-size="14.00">left_node=(nil)</text>
<polyline fill="none" stroke="black" points="1368,-0.5 1368,-23.5 "/>
<text text-anchor="middle" x="1442.5" y="-8.3" font-family="Courier,monospace" font-size="14.00">right_node=(nil)</text>
</g>
<!-- node12&#45;&gt;node26 -->
<g id="edge10" class="edge">
<title>node12&#45;&gt;node26</title>
<path fill="none" stroke="green" d="M1372.5,-106.29C1372.5,-106.29 1372.5,-79.79 1372.5,-79.79"/>
<polygon fill="green" stroke="green" points="1376,-79.79 1372.5,-69.79 1369,-79.79 1376,-79.79"/>
</g>
<!-- node28 -->
<g id="node12" class="node">
<title>node28</title>
<path fill="lime" stroke="black" d="M1547,-0.5C1547,-0.5 1812,-0.5 1812,-0.5 1818,-0.5 1824,-6.5 1824,-12.5 1824,-12.5 1824,-57.5 1824,-57.5 1824,-63.5 1818,-69.5 1812,-69.5 1812,-69.5 1547,-69.5 1547,-69.5 1541,-69.5 1535,-63.5 1535,-57.5 1535,-57.5 1535,-12.5 1535,-12.5 1535,-6.5 1541,-0.5 1547,-0.5"/>
<text text-anchor="middle" x="1679.5" y="-54.3" font-family="Courier,monospace" font-size="14.00">VAL = 15.000000</text>
<polyline fill="none" stroke="black" points="1535,-46.5 1824,-46.5 "/>
<text text-anchor="middle" x="1679.5" y="-31.3" font-family="Courier,monospace" font-size="14.00">ptr:0x5aade052e688</text>
<polyline fill="none" stroke="black" points="1535,-23.5 1824,-23.5 "/>
<text text-anchor="middle" x="1605" y="-8.3" font-family="Courier,monospace" font-size="14.00">left_node=(nil)</text>
<polyline fill="none" stroke="black" points="1675,-0.5 1675,-23.5 "/>
<text text-anchor="middle" x="1749.5" y="-8.3" font-family="Courier,monospace" font-size="14.00">right_node=(nil)</text>
</g>
<!-- node12&#45;&gt;node28 -->
<g id="edge11" class="edge">
<title>node12&#45;&gt;node28</title>
<path fill="none" stroke="green" d="M1563.25,-106.29C1563.25,-106.29 1563.25,-79.79 1563.25,-79.79"/>
<polygon fill="green" stroke="green" points="1566.75,-79.79 1563.25,-69.79 1559.75,-79.79 1566.75,-79.79"/>
</g>
</g>
</svg>
