<?xml version="1.0" encoding="UTF-8" standalone="no"?>
<!DOCTYPE svg PUBLIC "-//W3C//DTD SVG 1.1//EN"
 "http://www.w3.org/Graphics/SVG/1.1/DTD/svg11.dtd">
<!-- Generated by graphviz version 2.43.0 (0)
 -->
<!-- Title: ListDump Pages: 1 -->
<svg width="2213pt" height="502pt"
 viewBox="0.00 0.00 2213.00 502.00" xmlns="http://www.w3.org/2000/svg" xmlns:xlink="http://www.w3.org/1999/xlink">
<g id="graph0" class="graph" transform="scale(1 1) rotate(0) translate(4 498)">
<title>ListDump</title>
<polygon fill="white" stroke="transparent" points="-4,4 -4,-498 2209,-498 2209,4 -4,4"/>
<!-- node1 -->
<g id="node1" class="node">
<title>node1</title>
<path fill="lime" stroke="black" d="M686.5,-424.5C686.5,-424.5 1100.5,-424.5 1100.5,-424.5 1106.5,-424.5 1112.5,-430.5 1112.5,-436.5 1112.5,-436.5 1112.5,-481.5 1112.5,-481.5 1112.5,-487.5 1106.5,-493.5 1100.5,-493.5 1100.5,-493.5 686.5,-493.5 686.5,-493.5 680.5,-493.5 674.5,-487.5 674.5,-481.5 674.5,-481.5 674.5,-436.5 674.5,-436.5 674.5,-430.5 680.5,-424.5 686.5,-424.5"/>
<text text-anchor="middle" x="893.5" y="-478.3" font-family="Courier,monospace" font-size="14.00">VAL = 8.000000</text>
<polyline fill="none" stroke="black" points="674.5,-470.5 1112.5,-470.5 "/>
<text text-anchor="middle" x="893.5" y="-455.3" font-family="Courier,monospace" font-size="14.00">ptr:0x60bb9ba51458</text>
<polyline fill="none" stroke="black" points="674.5,-447.5 1112.5,-447.5 "/>
<text text-anchor="middle" x="782" y="-432.3" font-family="Courier,monospace" font-size="14.00">left_node=0x60bb9ba51480</text>
<polyline fill="none" stroke="black" points="889.5,-424.5 889.5,-447.5 "/>
<text text-anchor="middle" x="1001" y="-432.3" font-family="Courier,monospace" font-size="14.00">right_node=0x60bb9ba514a8</text>
</g>
<!-- node2 -->
<g id="node2" class="node">
<title>node2</title>
<path fill="lime" stroke="black" d="M458.5,-318.5C458.5,-318.5 872.5,-318.5 872.5,-318.5 878.5,-318.5 884.5,-324.5 884.5,-330.5 884.5,-330.5 884.5,-375.5 884.5,-375.5 884.5,-381.5 878.5,-387.5 872.5,-387.5 872.5,-387.5 458.5,-387.5 458.5,-387.5 452.5,-387.5 446.5,-381.5 446.5,-375.5 446.5,-375.5 446.5,-330.5 446.5,-330.5 446.5,-324.5 452.5,-318.5 458.5,-318.5"/>
<text text-anchor="middle" x="665.5" y="-372.3" font-family="Courier,monospace" font-size="14.00">VAL = 4.000000</text>
<polyline fill="none" stroke="black" points="446.5,-364.5 884.5,-364.5 "/>
<text text-anchor="middle" x="665.5" y="-349.3" font-family="Courier,monospace" font-size="14.00">ptr:0x60bb9ba51480</text>
<polyline fill="none" stroke="black" points="446.5,-341.5 884.5,-341.5 "/>
<text text-anchor="middle" x="554" y="-326.3" font-family="Courier,monospace" font-size="14.00">left_node=0x60bb9ba514d0</text>
<polyline fill="none" stroke="black" points="661.5,-318.5 661.5,-341.5 "/>
<text text-anchor="middle" x="773" y="-326.3" font-family="Courier,monospace" font-size="14.00">right_node=0x60bb9ba514f8</text>
</g>
<!-- node1&#45;&gt;node2 -->
<g id="edge1" class="edge">
<title>node1&#45;&gt;node2</title>
<path fill="none" stroke="green" d="M779.5,-424.29C779.5,-424.29 779.5,-397.79 779.5,-397.79"/>
<polygon fill="green" stroke="green" points="783,-397.79 779.5,-387.79 776,-397.79 783,-397.79"/>
</g>
<!-- node4 -->
<g id="node8" class="node">
<title>node4</title>
<path fill="lime" stroke="black" d="M937.5,-318.5C937.5,-318.5 1351.5,-318.5 1351.5,-318.5 1357.5,-318.5 1363.5,-324.5 1363.5,-330.5 1363.5,-330.5 1363.5,-375.5 1363.5,-375.5 1363.5,-381.5 1357.5,-387.5 1351.5,-387.5 1351.5,-387.5 937.5,-387.5 937.5,-387.5 931.5,-387.5 925.5,-381.5 925.5,-375.5 925.5,-375.5 925.5,-330.5 925.5,-330.5 925.5,-324.5 931.5,-318.5 937.5,-318.5"/>
<text text-anchor="middle" x="1144.5" y="-372.3" font-family="Courier,monospace" font-size="14.00">VAL = 12.000000</text>
<polyline fill="none" stroke="black" points="925.5,-364.5 1363.5,-364.5 "/>
<text text-anchor="middle" x="1144.5" y="-349.3" font-family="Courier,monospace" font-size="14.00">ptr:0x60bb9ba514a8</text>
<polyline fill="none" stroke="black" points="925.5,-341.5 1363.5,-341.5 "/>
<text text-anchor="middle" x="1033" y="-326.3" font-family="Courier,monospace" font-size="14.00">left_node=0x60bb9ba51520</text>
<polyline fill="none" stroke="black" points="1140.5,-318.5 1140.5,-341.5 "/>
<text text-anchor="middle" x="1252" y="-326.3" font-family="Courier,monospace" font-size="14.00">right_node=0x60bb9ba51548</text>
</g>
<!-- node1&#45;&gt;node4 -->
<g id="edge7" class="edge">
<title>node1&#45;&gt;node4</title>
<path fill="none" stroke="green" d="M1019,-424.29C1019,-424.29 1019,-397.79 1019,-397.79"/>
<polygon fill="green" stroke="green" points="1022.5,-397.79 1019,-387.79 1015.5,-397.79 1022.5,-397.79"/>
</g>
<!-- node6 -->
<g id="node3" class="node">
<title>node6</title>
<path fill="lime" stroke="black" d="M66,-212.5C66,-212.5 405,-212.5 405,-212.5 411,-212.5 417,-218.5 417,-224.5 417,-224.5 417,-269.5 417,-269.5 417,-275.5 411,-281.5 405,-281.5 405,-281.5 66,-281.5 66,-281.5 60,-281.5 54,-275.5 54,-269.5 54,-269.5 54,-224.5 54,-224.5 54,-218.5 60,-212.5 66,-212.5"/>
<text text-anchor="middle" x="235.5" y="-266.3" font-family="Courier,monospace" font-size="14.00">VAL = 2.000000</text>
<polyline fill="none" stroke="black" points="54,-258.5 417,-258.5 "/>
<text text-anchor="middle" x="235.5" y="-243.3" font-family="Courier,monospace" font-size="14.00">ptr:0x60bb9ba514d0</text>
<polyline fill="none" stroke="black" points="54,-235.5 417,-235.5 "/>
<text text-anchor="middle" x="124" y="-220.3" font-family="Courier,monospace" font-size="14.00">left_node=(nil)</text>
<polyline fill="none" stroke="black" points="194,-212.5 194,-235.5 "/>
<text text-anchor="middle" x="305.5" y="-220.3" font-family="Courier,monospace" font-size="14.00">right_node=0x60bb9ba51570</text>
</g>
<!-- node2&#45;&gt;node6 -->
<g id="edge2" class="edge">
<title>node2&#45;&gt;node6</title>
<path fill="none" stroke="green" d="M446.41,-353C340.29,-353 235.5,-353 235.5,-353 235.5,-353 235.5,-291.71 235.5,-291.71"/>
<polygon fill="green" stroke="green" points="239,-291.71 235.5,-281.71 232,-291.71 239,-291.71"/>
</g>
<!-- node8 -->
<g id="node5" class="node">
<title>node8</title>
<path fill="lime" stroke="black" d="M458.5,-212.5C458.5,-212.5 872.5,-212.5 872.5,-212.5 878.5,-212.5 884.5,-218.5 884.5,-224.5 884.5,-224.5 884.5,-269.5 884.5,-269.5 884.5,-275.5 878.5,-281.5 872.5,-281.5 872.5,-281.5 458.5,-281.5 458.5,-281.5 452.5,-281.5 446.5,-275.5 446.5,-269.5 446.5,-269.5 446.5,-224.5 446.5,-224.5 446.5,-218.5 452.5,-212.5 458.5,-212.5"/>
<text text-anchor="middle" x="665.5" y="-266.3" font-family="Courier,monospace" font-size="14.00">VAL = 6.000000</text>
<polyline fill="none" stroke="black" points="446.5,-258.5 884.5,-258.5 "/>
<text text-anchor="middle" x="665.5" y="-243.3" font-family="Courier,monospace" font-size="14.00">ptr:0x60bb9ba514f8</text>
<polyline fill="none" stroke="black" points="446.5,-235.5 884.5,-235.5 "/>
<text text-anchor="middle" x="554" y="-220.3" font-family="Courier,monospace" font-size="14.00">left_node=0x60bb9ba51598</text>
<polyline fill="none" stroke="black" points="661.5,-212.5 661.5,-235.5 "/>
<text text-anchor="middle" x="773" y="-220.3" font-family="Courier,monospace" font-size="14.00">right_node=0x60bb9ba515c0</text>
</g>
<!-- node2&#45;&gt;node8 -->
<g id="edge4" class="edge">
<title>node2&#45;&gt;node8</title>
<path fill="none" stroke="green" d="M665.5,-318.29C665.5,-318.29 665.5,-291.79 665.5,-291.79"/>
<polygon fill="green" stroke="green" points="669,-291.79 665.5,-281.79 662,-291.79 669,-291.79"/>
</g>
<!-- node14 -->
<g id="node4" class="node">
<title>node14</title>
<path fill="lime" stroke="black" d="M12,-106.5C12,-106.5 277,-106.5 277,-106.5 283,-106.5 289,-112.5 289,-118.5 289,-118.5 289,-163.5 289,-163.5 289,-169.5 283,-175.5 277,-175.5 277,-175.5 12,-175.5 12,-175.5 6,-175.5 0,-169.5 0,-163.5 0,-163.5 0,-118.5 0,-118.5 0,-112.5 6,-106.5 12,-106.5"/>
<text text-anchor="middle" x="144.5" y="-160.3" font-family="Courier,monospace" font-size="14.00">VAL = 3.000000</text>
<polyline fill="none" stroke="black" points="0,-152.5 289,-152.5 "/>
<text text-anchor="middle" x="144.5" y="-137.3" font-family="Courier,monospace" font-size="14.00">ptr:0x60bb9ba51570</text>
<polyline fill="none" stroke="black" points="0,-129.5 289,-129.5 "/>
<text text-anchor="middle" x="70" y="-114.3" font-family="Courier,monospace" font-size="14.00">left_node=(nil)</text>
<polyline fill="none" stroke="black" points="140,-106.5 140,-129.5 "/>
<text text-anchor="middle" x="214.5" y="-114.3" font-family="Courier,monospace" font-size="14.00">right_node=(nil)</text>
</g>
<!-- node6&#45;&gt;node14 -->
<g id="edge3" class="edge">
<title>node6&#45;&gt;node14</title>
<path fill="none" stroke="green" d="M171.5,-212.29C171.5,-212.29 171.5,-185.79 171.5,-185.79"/>
<polygon fill="green" stroke="green" points="175,-185.79 171.5,-175.79 168,-185.79 175,-185.79"/>
</g>
<!-- node16 -->
<g id="node6" class="node">
<title>node16</title>
<path fill="lime" stroke="black" d="M319,-106.5C319,-106.5 584,-106.5 584,-106.5 590,-106.5 596,-112.5 596,-118.5 596,-118.5 596,-163.5 596,-163.5 596,-169.5 590,-175.5 584,-175.5 584,-175.5 319,-175.5 319,-175.5 313,-175.5 307,-169.5 307,-163.5 307,-163.5 307,-118.5 307,-118.5 307,-112.5 313,-106.5 319,-106.5"/>
<text text-anchor="middle" x="451.5" y="-160.3" font-family="Courier,monospace" font-size="14.00">VAL = 5.000000</text>
<polyline fill="none" stroke="black" points="307,-152.5 596,-152.5 "/>
<text text-anchor="middle" x="451.5" y="-137.3" font-family="Courier,monospace" font-size="14.00">ptr:0x60bb9ba51598</text>
<polyline fill="none" stroke="black" points="307,-129.5 596,-129.5 "/>
<text text-anchor="middle" x="377" y="-114.3" font-family="Courier,monospace" font-size="14.00">left_node=(nil)</text>
<polyline fill="none" stroke="black" points="447,-106.5 447,-129.5 "/>
<text text-anchor="middle" x="521.5" y="-114.3" font-family="Courier,monospace" font-size="14.00">right_node=(nil)</text>
</g>
<!-- node8&#45;&gt;node16 -->
<g id="edge5" class="edge">
<title>node8&#45;&gt;node16</title>
<path fill="none" stroke="green" d="M521.25,-212.29C521.25,-212.29 521.25,-185.79 521.25,-185.79"/>
<polygon fill="green" stroke="green" points="524.75,-185.79 521.25,-175.79 517.75,-185.79 524.75,-185.79"/>
</g>
<!-- node18 -->
<g id="node7" class="node">
<title>node18</title>
<path fill="lime" stroke="black" d="M626,-106.5C626,-106.5 891,-106.5 891,-106.5 897,-106.5 903,-112.5 903,-118.5 903,-118.5 903,-163.5 903,-163.5 903,-169.5 897,-175.5 891,-175.5 891,-175.5 626,-175.5 626,-175.5 620,-175.5 614,-169.5 614,-163.5 614,-163.5 614,-118.5 614,-118.5 614,-112.5 620,-106.5 626,-106.5"/>
<text text-anchor="middle" x="758.5" y="-160.3" font-family="Courier,monospace" font-size="14.00">VAL = 7.000000</text>
<polyline fill="none" stroke="black" points="614,-152.5 903,-152.5 "/>
<text text-anchor="middle" x="758.5" y="-137.3" font-family="Courier,monospace" font-size="14.00">ptr:0x60bb9ba515c0</text>
<polyline fill="none" stroke="black" points="614,-129.5 903,-129.5 "/>
<text text-anchor="middle" x="684" y="-114.3" font-family="Courier,monospace" font-size="14.00">left_node=(nil)</text>
<polyline fill="none" stroke="black" points="754,-106.5 754,-129.5 "/>
<text text-anchor="middle" x="828.5" y="-114.3" font-family="Courier,monospace" font-size="14.00">right_node=(nil)</text>
</g>
<!-- node8&#45;&gt;node18 -->
<g id="edge6" class="edge">
<title>node8&#45;&gt;node18</title>
<path fill="none" stroke="green" d="M749.25,-212.29C749.25,-212.29 749.25,-185.79 749.25,-185.79"/>
<polygon fill="green" stroke="green" points="752.75,-185.79 749.25,-175.79 745.75,-185.79 752.75,-185.79"/>
</g>
<!-- node10 -->
<g id="node9" class="node">
<title>node10</title>
<path fill="lime" stroke="black" d="M937.5,-212.5C937.5,-212.5 1351.5,-212.5 1351.5,-212.5 1357.5,-212.5 1363.5,-218.5 1363.5,-224.5 1363.5,-224.5 1363.5,-269.5 1363.5,-269.5 1363.5,-275.5 1357.5,-281.5 1351.5,-281.5 1351.5,-281.5 937.5,-281.5 937.5,-281.5 931.5,-281.5 925.5,-275.5 925.5,-269.5 925.5,-269.5 925.5,-224.5 925.5,-224.5 925.5,-218.5 931.5,-212.5 937.5,-212.5"/>
<text text-anchor="middle" x="1144.5" y="-266.3" font-family="Courier,monospace" font-size="14.00">VAL = 10.000000</text>
<polyline fill="none" stroke="black" points="925.5,-258.5 1363.5,-258.5 "/>
<text text-anchor="middle" x="1144.5" y="-243.3" font-family="Courier,monospace" font-size="14.00">ptr:0x60bb9ba51520</text>
<polyline fill="none" stroke="black" points="925.5,-235.5 1363.5,-235.5 "/>
<text text-anchor="middle" x="1033" y="-220.3" font-family="Courier,monospace" font-size="14.00">left_node=0x60bb9ba515e8</text>
<polyline fill="none" stroke="black" points="1140.5,-212.5 1140.5,-235.5 "/>
<text text-anchor="middle" x="1252" y="-220.3" font-family="Courier,monospace" font-size="14.00">right_node=0x60bb9ba51610</text>
</g>
<!-- node4&#45;&gt;node10 -->
<g id="edge8" class="edge">
<title>node4&#45;&gt;node10</title>
<path fill="none" stroke="green" d="M1144.5,-318.29C1144.5,-318.29 1144.5,-291.79 1144.5,-291.79"/>
<polygon fill="green" stroke="green" points="1148,-291.79 1144.5,-281.79 1141,-291.79 1148,-291.79"/>
</g>
<!-- node12 -->
<g id="node12" class="node">
<title>node12</title>
<path fill="lime" stroke="black" d="M1472.5,-212.5C1472.5,-212.5 1886.5,-212.5 1886.5,-212.5 1892.5,-212.5 1898.5,-218.5 1898.5,-224.5 1898.5,-224.5 1898.5,-269.5 1898.5,-269.5 1898.5,-275.5 1892.5,-281.5 1886.5,-281.5 1886.5,-281.5 1472.5,-281.5 1472.5,-281.5 1466.5,-281.5 1460.5,-275.5 1460.5,-269.5 1460.5,-269.5 1460.5,-224.5 1460.5,-224.5 1460.5,-218.5 1466.5,-212.5 1472.5,-212.5"/>
<text text-anchor="middle" x="1679.5" y="-266.3" font-family="Courier,monospace" font-size="14.00">VAL = 14.000000</text>
<polyline fill="none" stroke="black" points="1460.5,-258.5 1898.5,-258.5 "/>
<text text-anchor="middle" x="1679.5" y="-243.3" font-family="Courier,monospace" font-size="14.00">ptr:0x60bb9ba51548</text>
<polyline fill="none" stroke="black" points="1460.5,-235.5 1898.5,-235.5 "/>
<text text-anchor="middle" x="1568" y="-220.3" font-family="Courier,monospace" font-size="14.00">left_node=0x60bb9ba51638</text>
<polyline fill="none" stroke="black" points="1675.5,-212.5 1675.5,-235.5 "/>
<text text-anchor="middle" x="1787" y="-220.3" font-family="Courier,monospace" font-size="14.00">right_node=0x60bb9ba51660</text>
</g>
<!-- node4&#45;&gt;node12 -->
<g id="edge11" class="edge">
<title>node4&#45;&gt;node12</title>
<path fill="none" stroke="green" d="M1363.65,-353C1511.4,-353 1679.5,-353 1679.5,-353 1679.5,-353 1679.5,-291.71 1679.5,-291.71"/>
<polygon fill="green" stroke="green" points="1683,-291.71 1679.5,-281.71 1676,-291.71 1683,-291.71"/>
</g>
<!-- node20 -->
<g id="node10" class="node">
<title>node20</title>
<path fill="lime" stroke="black" d="M933,-106.5C933,-106.5 1198,-106.5 1198,-106.5 1204,-106.5 1210,-112.5 1210,-118.5 1210,-118.5 1210,-163.5 1210,-163.5 1210,-169.5 1204,-175.5 1198,-175.5 1198,-175.5 933,-175.5 933,-175.5 927,-175.5 921,-169.5 921,-163.5 921,-163.5 921,-118.5 921,-118.5 921,-112.5 927,-106.5 933,-106.5"/>
<text text-anchor="middle" x="1065.5" y="-160.3" font-family="Courier,monospace" font-size="14.00">VAL = 9.000000</text>
<polyline fill="none" stroke="black" points="921,-152.5 1210,-152.5 "/>
<text text-anchor="middle" x="1065.5" y="-137.3" font-family="Courier,monospace" font-size="14.00">ptr:0x60bb9ba515e8</text>
<polyline fill="none" stroke="black" points="921,-129.5 1210,-129.5 "/>
<text text-anchor="middle" x="991" y="-114.3" font-family="Courier,monospace" font-size="14.00">left_node=(nil)</text>
<polyline fill="none" stroke="black" points="1061,-106.5 1061,-129.5 "/>
<text text-anchor="middle" x="1135.5" y="-114.3" font-family="Courier,monospace" font-size="14.00">right_node=(nil)</text>
</g>
<!-- node10&#45;&gt;node20 -->
<g id="edge9" class="edge">
<title>node10&#45;&gt;node20</title>
<path fill="none" stroke="green" d="M1067.75,-212.29C1067.75,-212.29 1067.75,-185.79 1067.75,-185.79"/>
<polygon fill="green" stroke="green" points="1071.25,-185.79 1067.75,-175.79 1064.25,-185.79 1071.25,-185.79"/>
</g>
<!-- node22 -->
<g id="node11" class="node">
<title>node22</title>
<path fill="lime" stroke="black" d="M1240,-106.5C1240,-106.5 1505,-106.5 1505,-106.5 1511,-106.5 1517,-112.5 1517,-118.5 1517,-118.5 1517,-163.5 1517,-163.5 1517,-169.5 1511,-175.5 1505,-175.5 1505,-175.5 1240,-175.5 1240,-175.5 1234,-175.5 1228,-169.5 1228,-163.5 1228,-163.5 1228,-118.5 1228,-118.5 1228,-112.5 1234,-106.5 1240,-106.5"/>
<text text-anchor="middle" x="1372.5" y="-160.3" font-family="Courier,monospace" font-size="14.00">VAL = 11.000000</text>
<polyline fill="none" stroke="black" points="1228,-152.5 1517,-152.5 "/>
<text text-anchor="middle" x="1372.5" y="-137.3" font-family="Courier,monospace" font-size="14.00">ptr:0x60bb9ba51610</text>
<polyline fill="none" stroke="black" points="1228,-129.5 1517,-129.5 "/>
<text text-anchor="middle" x="1298" y="-114.3" font-family="Courier,monospace" font-size="14.00">left_node=(nil)</text>
<polyline fill="none" stroke="black" points="1368,-106.5 1368,-129.5 "/>
<text text-anchor="middle" x="1442.5" y="-114.3" font-family="Courier,monospace" font-size="14.00">right_node=(nil)</text>
</g>
<!-- node10&#45;&gt;node22 -->
<g id="edge10" class="edge">
<title>node10&#45;&gt;node22</title>
<path fill="none" stroke="green" d="M1295.75,-212.29C1295.75,-212.29 1295.75,-185.79 1295.75,-185.79"/>
<polygon fill="green" stroke="green" points="1299.25,-185.79 1295.75,-175.79 1292.25,-185.79 1299.25,-185.79"/>
</g>
<!-- node24 -->
<g id="node13" class="node">
<title>node24</title>
<path fill="lime" stroke="black" d="M1547,-106.5C1547,-106.5 1812,-106.5 1812,-106.5 1818,-106.5 1824,-112.5 1824,-118.5 1824,-118.5 1824,-163.5 1824,-163.5 1824,-169.5 1818,-175.5 1812,-175.5 1812,-175.5 1547,-175.5 1547,-175.5 1541,-175.5 1535,-169.5 1535,-163.5 1535,-163.5 1535,-118.5 1535,-118.5 1535,-112.5 1541,-106.5 1547,-106.5"/>
<text text-anchor="middle" x="1679.5" y="-160.3" font-family="Courier,monospace" font-size="14.00">VAL = 13.000000</text>
<polyline fill="none" stroke="black" points="1535,-152.5 1824,-152.5 "/>
<text text-anchor="middle" x="1679.5" y="-137.3" font-family="Courier,monospace" font-size="14.00">ptr:0x60bb9ba51638</text>
<polyline fill="none" stroke="black" points="1535,-129.5 1824,-129.5 "/>
<text text-anchor="middle" x="1605" y="-114.3" font-family="Courier,monospace" font-size="14.00">left_node=(nil)</text>
<polyline fill="none" stroke="black" points="1675,-106.5 1675,-129.5 "/>
<text text-anchor="middle" x="1749.5" y="-114.3" font-family="Courier,monospace" font-size="14.00">right_node=(nil)</text>
</g>
<!-- node12&#45;&gt;node24 -->
<g id="edge12" class="edge">
<title>node12&#45;&gt;node24</title>
<path fill="none" stroke="green" d="M1679.5,-212.29C1679.5,-212.29 1679.5,-185.79 1679.5,-185.79"/>
<polygon fill="green" stroke="green" points="1683,-185.79 1679.5,-175.79 1676,-185.79 1683,-185.79"/>
</g>
<!-- node26 -->
<g id="node14" class="node">
<title>node26</title>
<path fill="lime" stroke="black" d="M1854,-106.5C1854,-106.5 2193,-106.5 2193,-106.5 2199,-106.5 2205,-112.5 2205,-118.5 2205,-118.5 2205,-163.5 2205,-163.5 2205,-169.5 2199,-175.5 2193,-175.5 2193,-175.5 1854,-175.5 1854,-175.5 1848,-175.5 1842,-169.5 1842,-163.5 1842,-163.5 1842,-118.5 1842,-118.5 1842,-112.5 1848,-106.5 1854,-106.5"/>
<text text-anchor="middle" x="2023.5" y="-160.3" font-family="Courier,monospace" font-size="14.00">VAL = 15.000000</text>
<polyline fill="none" stroke="black" points="1842,-152.5 2205,-152.5 "/>
<text text-anchor="middle" x="2023.5" y="-137.3" font-family="Courier,monospace" font-size="14.00">ptr:0x60bb9ba51660</text>
<polyline fill="none" stroke="black" points="1842,-129.5 2205,-129.5 "/>
<text text-anchor="middle" x="1912" y="-114.3" font-family="Courier,monospace" font-size="14.00">left_node=(nil)</text>
<polyline fill="none" stroke="black" points="1982,-106.5 1982,-129.5 "/>
<text text-anchor="middle" x="2093.5" y="-114.3" font-family="Courier,monospace" font-size="14.00">right_node=0x60bb9ba51688</text>
</g>
<!-- node12&#45;&gt;node26 -->
<g id="edge13" class="edge">
<title>node12&#45;&gt;node26</title>
<path fill="none" stroke="green" d="M1870.25,-212.29C1870.25,-212.29 1870.25,-185.79 1870.25,-185.79"/>
<polygon fill="green" stroke="green" points="1873.75,-185.79 1870.25,-175.79 1866.75,-185.79 1873.75,-185.79"/>
</g>
<!-- node28 -->
<g id="node15" class="node">
<title>node28</title>
<path fill="lime" stroke="black" d="M1891,-0.5C1891,-0.5 2156,-0.5 2156,-0.5 2162,-0.5 2168,-6.5 2168,-12.5 2168,-12.5 2168,-57.5 2168,-57.5 2168,-63.5 2162,-69.5 2156,-69.5 2156,-69.5 1891,-69.5 1891,-69.5 1885,-69.5 1879,-63.5 1879,-57.5 1879,-57.5 1879,-12.5 1879,-12.5 1879,-6.5 1885,-0.5 1891,-0.5"/>
<text text-anchor="middle" x="2023.5" y="-54.3" font-family="Courier,monospace" font-size="14.00">VAL = 52.000000</text>
<polyline fill="none" stroke="black" points="1879,-46.5 2168,-46.5 "/>
<text text-anchor="middle" x="2023.5" y="-31.3" font-family="Courier,monospace" font-size="14.00">ptr:0x60bb9ba51688</text>
<polyline fill="none" stroke="black" points="1879,-23.5 2168,-23.5 "/>
<text text-anchor="middle" x="1949" y="-8.3" font-family="Courier,monospace" font-size="14.00">left_node=(nil)</text>
<polyline fill="none" stroke="black" points="2019,-0.5 2019,-23.5 "/>
<text text-anchor="middle" x="2093.5" y="-8.3" font-family="Courier,monospace" font-size="14.00">right_node=(nil)</text>
</g>
<!-- node26&#45;&gt;node28 -->
<g id="edge14" class="edge">
<title>node26&#45;&gt;node28</title>
<path fill="none" stroke="green" d="M2023.5,-106.29C2023.5,-106.29 2023.5,-79.79 2023.5,-79.79"/>
<polygon fill="green" stroke="green" points="2027,-79.79 2023.5,-69.79 2020,-79.79 2027,-79.79"/>
</g>
</g>
</svg>
